<svg xmlns="http://www.w3.org/2000/svg">
  <symbol viewBox="0 0 48 48" id="icon-vk">
    <rect width="48" height="48"/>
    <g clip-path="url(#clip0_50521_145)">
    <path fill-rule="evenodd" clip-rule="evenodd" d="M35.45 17.948C35.616 17.402 35.45 17 34.655 17H32.03C31.362 17 31.054 17.347 30.887 17.73C30.887 17.73 29.552 20.926 27.661 23.002C27.049 23.604 26.771 23.795 26.437 23.795C26.27 23.795 26.019 23.604 26.019 23.057V17.948C26.019 17.292 25.835 17 25.279 17H21.151C20.734 17 20.483 17.304 20.483 17.593C20.483 18.214 21.429 18.358 21.526 20.106V23.904C21.526 24.737 21.373 24.888 21.039 24.888C20.149 24.888 17.984 21.677 16.699 18.003C16.45 17.288 16.198 17 15.527 17H12.9C12.15 17 12 17.347 12 17.73C12 18.412 12.89 21.8 16.145 26.281C18.315 29.341 21.37 31 24.153 31C25.822 31 26.028 30.632 26.028 29.997V27.684C26.028 26.947 26.186 26.8 26.715 26.8C27.105 26.8 27.772 26.992 29.33 28.467C31.11 30.216 31.403 31 32.405 31H35.03C35.78 31 36.156 30.632 35.94 29.904C35.702 29.18 34.852 28.129 33.725 26.882C33.113 26.172 32.195 25.407 31.916 25.024C31.527 24.533 31.638 24.314 31.916 23.877C31.916 23.877 35.116 19.451 35.449 17.948H35.45Z" fill="white"/>
    </g>
    <defs>
    <clipPath id="clip0_50521_145">
    <rect width="24" height="24" fill="white" transform="translate(12 12)"/>
    </clipPath>
    </defs>
  </symbol>

  <symbol viewBox="0 0 48 48" id="icon-tg">
    <rect width="48" height="48"/>
    <path d="M34.4393 16.6223L31.2705 31.566C31.0313 32.6205 30.408 32.883 29.5223 32.3865L24.6938 28.8285L22.3643 31.0695C22.1063 31.3275 21.891 31.5428 21.3938 31.5428L21.741 26.6258L30.6893 18.54C31.0785 18.1935 30.6045 18.0008 30.0848 18.348L19.0223 25.314L14.2598 23.823C13.224 23.4998 13.2053 22.7873 14.4758 22.29L33.1035 15.1133C33.966 14.79 34.7205 15.3053 34.4393 16.623V16.6223Z" fill="white"/>
  </symbol>

  <symbol viewBox="0 0 48 48" id="icon-yt">
    <rect width="48" height="48"/>
    <path fill="#fff" d="M31.1813 17H16.8133C15.3062 17 14 18.3 14 19.8V28.1C14 29.7 15.3062 31 16.8133 31H31.1813C32.7889 31 33.9946 29.7 33.9946 28.2V19.8C34.095 18.3 32.7889 17 31.1813 17ZM21.0333 27.4V20.6L27.8656 24L21.0333 27.4Z"/>
  </symbol>

  <symbol viewBox="0 0 27 35" id="icon-htmlacademy">
    <path fill="currentColor"
      d="M13.6 0h-.1L0 1.4v24.7l13.5 8 13.4-8V1.4L13.6 0ZM25 12.1 13.5 5.3v-.1h-.1l-.1-.1v.1L1.9 12.1v-9l11.5-1.2L25 3.1v9ZM13.4 6.8l11.5 6.7-4.5 2.6-7.1-4.2v1.4l5.9 3.5-.9.5-5-3v1.4l3.8 2.3-.8.5-3-1.8v1.4l1.9 1.1-1.8 1.1L2 13.6l11.4-6.8ZM1.9 15.1l11.4 6.8v1l-7.9-4.7v1.4l8 4.8v1.1l-8-4.7v1.4l8 4.8 8.1-4.9v-5.2l3.4-2v10l-11.5 6.9L1.9 25v-9.9Z" />
  </symbol>

  <symbol viewBox="0 0 23 21" id="icon-like">
    <path d="m12.96 3.78-.62 3.05-.63 2.62h9.09v2.2l-3.03 7.25h-9.4V8.4l4.6-4.62ZM2.1 10.5v8.4-8.4ZM13.8 0 6.9 6.93c-.42.32-.63.84-.63 1.47v10.5c0 1.16.94 2.1 2.1 2.1h9.4c.84 0 1.57-.52 1.88-1.26l3.14-7.45c.1-.21.1-.53.1-.74v-2.1H23a2.1 2.1 0 0 0-2.1-2.1h-6.58l1.05-4.83v-.31c0-.43-.21-.84-.42-1.16L13.8 0ZM4.18 8.4H0V21h4.18V8.4Z"/>
  </symbol>
</svg>
